<?xml version="1.0" encoding="iso-8859-1"?>
<!-- Uploaded to: SVG Repo, www.svgrepo.com, Generator: SVG Repo Mixer Tools -->
<svg fill="#000000" height="800px" width="800px" version="1.1" id="Layer_1" xmlns="http://www.w3.org/2000/svg" xmlns:xlink="http://www.w3.org/1999/xlink" 
	 viewBox="0 0 488.107 488.107" xml:space="preserve">
<g transform="translate(0 -540.36)">
	<g>
		<g>
			<path d="M327.454,647.264c2,2.6,5,4,8,4c2.1,0,4.2-0.7,6-2l4.2-3.2v5.1c0,5.5,4.5,10,10,10s10-4.5,10-10v-5.1l4.2,3.2
				c1.8,1.4,3.9,2,6,2c3,0,6-1.4,8-4c3.4-4.4,2.5-10.7-1.9-14l-9.6-7.3l9.6-7.3c4.4-3.3,5.3-9.6,1.9-14c-3.3-4.4-9.6-5.3-14-1.9
				l-4.2,3.2v-5.1c0-5.5-4.5-10-10-10s-10,4.5-10,10v5.1l-4.2-3.2c-4.4-3.3-10.7-2.5-14,1.9s-2.5,10.7,1.9,14l9.6,7.3l-9.6,7.3
				C324.954,636.564,324.054,642.864,327.454,647.264z"/>
			<path d="M104.154,647.264c2,2.6,5,4,8,4c2.1,0,4.2-0.7,6-2l4.2-3.2v5.1c0,5.5,4.5,10,10,10s10-4.5,10-10v-5.1l4.2,3.2
				c1.8,1.4,3.9,2,6,2c3,0,6-1.4,8-4c3.3-4.4,2.5-10.7-1.9-14l-9.6-7.3l9.6-7.3c4.4-3.3,5.3-9.6,1.9-14c-3.3-4.4-9.6-5.3-14-1.9
				l-4.2,3.2v-5.1c0-5.5-4.5-10-10-10s-10,4.5-10,10v5.1l-4.2-3.2c-4.4-3.3-10.7-2.5-14,1.9c-3.3,4.4-2.5,10.7,1.9,14l9.6,7.3
				l-9.6,7.3C101.654,636.564,100.754,642.864,104.154,647.264z"/>
			<path d="M30.554,712.263c5.5,0,10-4.5,10-10v-5.3l4.6,3.4c1.8,1.3,3.9,2,6,2c3.1,0,6.1-1.4,8-4c3.4-4.5,2.5-10.7-2-14l-9.8-7.2
				l9.8-7.2c4.4-3.3,5.4-9.6,2.1-14s-9.6-5.4-14-2.1l-4.6,3.4v-5.3c0-5.5-4.5-10-10-10s-10,4.5-10,10v5.3l-4.6-3.4
				c-4.4-3.3-10.7-2.4-14,2.1c-3.3,4.4-2.4,10.7,2.1,14l9.8,7.2l-9.9,7.2c-4.4,3.3-5.4,9.6-2.1,14c2,2.6,5,4,8,4c2.1,0,4.2-0.6,6-2
				l4.6-3.4v5.3C20.554,707.763,25.054,712.263,30.554,712.263z"/>
			<path d="M486.154,655.964c-3.3-4.4-9.6-5.4-14-2.1l-4.6,3.4v-5.3c0-5.5-4.5-10-10-10s-10,4.5-10,10v5.3l-4.6-3.4
				c-4.4-3.3-10.7-2.4-14,2.1c-3.3,4.4-2.4,10.7,2.1,14l9.8,7.2l-9.8,7.2c-4.4,3.3-5.4,9.6-2.1,14c2,2.6,5,4,8,4c2.1,0,4.2-0.6,6-2
				l4.6-3.4v5.3c0,5.5,4.5,10,10,10s10-4.5,10-10v-5.3l4.6,3.4c1.8,1.3,3.9,2,6,2c3.1,0,6.1-1.4,8-4c3.2-4.5,2.3-10.7-2.1-14
				l-9.8-7.2l9.8-7.2C488.454,666.664,489.454,660.364,486.154,655.964z"/>
			<path d="M4.154,568.364l9.8,7.2l-9.8,7.2c-4.4,3.3-5.4,9.6-2.1,14c2,2.6,5,4,8,4c2.1,0,4.2-0.6,6-2l4.6-3.4v5.3
				c0,5.5,4.5,10,10,10s10-4.5,10-10v-5.3l4.6,3.4c1.8,1.3,3.9,2,6,2c3.1,0,6.1-1.4,8-4c3.3-4.4,2.4-10.7-2.1-14l-9.8-7.2l9.8-7.2
				c4.4-3.3,5.4-9.6,2.1-14s-9.6-5.4-14-2.1l-4.6,3.4v-5.3c0-5.5-4.5-10-10-10s-10,4.5-10,10v5.3l-4.6-3.4c-4.4-3.3-10.7-2.4-14,2.1
				C-1.246,558.764-0.346,565.064,4.154,568.364z"/>
			<path d="M431.054,568.364l9.8,7.2l-9.8,7.2c-4.4,3.3-5.4,9.6-2.1,14c2,2.6,5,4,8,4c2.1,0,4.2-0.6,6-2l4.6-3.4v5.3
				c0,5.5,4.5,10,10,10s10-4.5,10-10v-5.3l4.6,3.4c1.8,1.3,3.9,2,6,2c3.1,0,6.1-1.4,8-4c3.2-4.4,2.3-10.7-2.1-14l-9.8-7.2l9.8-7.2
				c4.4-3.3,5.4-9.6,2.1-14s-9.6-5.4-14-2.1l-4.6,3.4v-5.3c0-5.5-4.5-10-10-10s-10,4.5-10,10v5.3l-4.6-3.4c-4.4-3.3-10.7-2.4-14,2.1
				C425.654,558.764,426.554,565.064,431.054,568.364z"/>
			<path d="M217.554,568.364l9.8,7.2l-9.8,7.2c-4.4,3.3-5.4,9.6-2.1,14c2,2.6,5,4,8,4c2.1,0,4.2-0.6,6-2l4.6-3.4v5.3
				c0,5.5,4.5,10,10,10s10-4.5,10-10v-5.3l4.6,3.4c1.8,1.3,3.9,2,6,2c3.1,0,6.1-1.4,8-4c3.3-4.4,2.4-10.7-2.1-14l-9.8-7.2l9.8-7.2
				c4.4-3.3,5.4-9.6,2.1-14s-9.6-5.4-14-2.1l-4.6,3.4v-5.3c0-5.5-4.5-10-10-10s-10,4.5-10,10v5.3l-4.6-3.4c-4.4-3.3-10.7-2.4-14,2.1
				C212.154,558.764,213.054,565.064,217.554,568.364z"/>
			<path d="M467.454,874.964c-7.7-116.1-100.6-207.8-213.4-212.9v-20c0-5.5-4.5-10-10-10s-10,4.5-10,10v20
				c-112.8,5.1-205.7,96.8-213.4,212.9c-0.4,5.5,3.8,10.3,9.3,10.6c5.5,0.4,10.3-3.8,10.6-9.3c1.9-29,28.7-51.7,60.9-51.7
				c32,0,59.1,22.8,61.7,52c0.4,4.8,4.3,8.8,9.3,9.1c5.5,0.4,10.3-3.8,10.6-9.3c1.7-25.9,23.3-46.9,50.9-51v163.3
				c0,21.6,18.5,39.8,40.5,39.8c0.2,0,0.3,0,0.5,0c22.4-1,40-18.8,40-40.5c0-5.5-4.5-10-10-10s-10,4.5-10,10
				c0,10.9-9.1,19.9-20.7,20.5c-11-0.1-20.3-9.1-20.3-19.8v-163.4c27.6,4.1,49.2,25,50.9,51c0.4,5.3,4.7,9.3,10,9.3
				c0.2,0,0.4,0,0.7,0c5-0.3,8.9-4.3,9.3-9.1c2.6-29.1,29.7-52,61.7-52c32.2,0,59,22.7,60.9,51.7c0.4,5.3,4.7,9.3,10,9.3
				c0.2,0,0.4,0,0.7,0C463.654,885.164,467.854,880.464,467.454,874.964L467.454,874.964z M386.554,804.564L386.554,804.564
				c-20.4,0-40,7.1-55.2,20c-6.5,5.6-12,12-16.2,19.1c-13.8-23.4-40.6-39.1-71.1-39.1s-57.3,15.8-71.1,39.1
				c-4.2-7.1-9.7-13.5-16.2-19.1c-15.2-12.9-34.7-20-55.2-20c-18.5,0-35.7,5.8-49.4,15.6c28.4-80.9,104.3-138.4,192-138.4
				s163.5,57.5,192,138.4C422.254,810.364,405.154,804.564,386.554,804.564z"/>
		</g>
	</g>
</g>
</svg>