<?xml version="1.0" encoding="UTF-8" standalone="no"?>
<!-- Uploaded to: SVG Repo, www.svgrepo.com, Generator: SVG Repo Mixer Tools -->

<svg
   fill="#000000"
   width="800px"
   height="800px"
   viewBox="0 0 1000 1000"
   version="1.1"
   id="svg1"
   sodipodi:docname="spin3-svgrepo-com.svg"
   inkscape:version="1.4 (86a8ad7, 2024-10-11)"
   xmlns:inkscape="http://www.inkscape.org/namespaces/inkscape"
   xmlns:sodipodi="http://sodipodi.sourceforge.net/DTD/sodipodi-0.dtd"
   xmlns="http://www.w3.org/2000/svg"
   xmlns:svg="http://www.w3.org/2000/svg">
  <defs
     id="defs1" />
  <sodipodi:namedview
     id="namedview1"
     pagecolor="#505050"
     bordercolor="#ffffff"
     borderopacity="1"
     inkscape:showpageshadow="0"
     inkscape:pageopacity="0"
     inkscape:pagecheckerboard="1"
     inkscape:deskcolor="#505050"
     inkscape:zoom="0.72036503"
     inkscape:cx="174.21723"
     inkscape:cy="415.76143"
     inkscape:window-width="1920"
     inkscape:window-height="1017"
     inkscape:window-x="-8"
     inkscape:window-y="-8"
     inkscape:window-maximized="1"
     inkscape:current-layer="svg1" />
  <path
     d="M493.556 -.063c-265.602 0 -482.306 209.741 -493.5 472.594 -.765 18.027 13 19.031 13 19.031l83.813 0c16.291 0 19.146 -9.297 19.531 -17.625 9.228 -199.317 175.315 -357.688 377.156 -357.688 107.739 0 204.915 45.163 273.719 117.563l-58.813 56.875c-10.23 12.319 -10.043 27.275 5.063 31.5l247.125 49.75c21.15 5.281 46.288 -10.747 37.656 -43.656l-58.375 -227.563c-1.482 -8.615 -15.924 -22.024 -29.406 -12.406l-64.094 60.031c-89.659 -91.567 -214.627 -148.406 -352.875 -148.406zm409.625 508.5c-16.291 0 -19.146 9.297 -19.531 17.625 -9.228 199.317 -175.315 357.688 -377.156 357.688 -107.739 0 -204.915 -45.132 -273.719 -117.531l58.813 -56.906c10.229 -12.319 10.043 -27.275 -5.063 -31.5l-247.125 -49.75c-21.15 -5.281 -46.288 10.747 -37.656 43.656l58.375 227.563c1.482 8.615 15.924 22.024 29.406 12.406l64.094 -60.031c89.659 91.567 214.627 148.406 352.875 148.406 265.602 0 482.306 -209.741 493.5 -472.594 .765 -18.027 -13 -19.031 -13 -19.031l-83.813 0z"
     id="path1" />
  <g
     id="Page-1"
     stroke="none"
     stroke-width="1"
     fill="none"
     fill-rule="evenodd"
     transform="matrix(0.9626116,0,0,0.96540179,253.57143,242.55952)">
    <g
       id="location-outline"
       fill="#000000"
       transform="translate(106.66667,42.666667)">
      <path
         d="m 149.33333,0 c 82.47453,0 149.33334,66.858811 149.33334,149.33333 0,27.20369 -7.25334,52.69334 -19.98316,74.67534 C 270.19696,238.66333 227.08024,313.32711 149.33333,448 71.586428,313.32711 28.469702,238.66333 19.983155,224.00867 7.2533333,202.02667 0,176.53702 0,149.33333 0,66.858811 66.858811,0 149.33333,0 Z m 0,85.333333 c -35.34622,0 -63.999997,28.653777 -63.999997,63.999997 0,35.34623 28.653777,64 63.999997,64 35.34623,0 64,-28.65377 64,-64 0,-35.34622 -28.65377,-63.999997 -64,-63.999997 z"
         id="Combined-Shape" />
    </g>
  </g>
</svg>
